<?xml version="1.0" encoding="UTF-8" standalone="no"?>
<!-- Created with Inkscape (http://www.inkscape.org/) -->

<svg
   xmlns:dc="http://purl.org/dc/elements/1.1/"
   xmlns:cc="http://creativecommons.org/ns#"
   xmlns:rdf="http://www.w3.org/1999/02/22-rdf-syntax-ns#"
   xmlns:svg="http://www.w3.org/2000/svg"
   xmlns="http://www.w3.org/2000/svg"
   xmlns:sodipodi="http://sodipodi.sourceforge.net/DTD/sodipodi-0.dtd"
   xmlns:inkscape="http://www.inkscape.org/namespaces/inkscape"
   version="1.1"
   width="202.45834"
   height="110.7521"
   id="svg2"
   xml:space="preserve"
   inkscape:version="0.48.2 r9819"
   sodipodi:docname="logo.svg"><sodipodi:namedview
     pagecolor="#ffffff"
     bordercolor="#666666"
     borderopacity="1"
     objecttolerance="10"
     gridtolerance="10"
     guidetolerance="10"
     inkscape:pageopacity="0"
     inkscape:pageshadow="2"
     inkscape:window-width="1054"
     inkscape:window-height="782"
     id="namedview15"
     showgrid="false"
     inkscape:zoom="1.7386293"
     inkscape:cx="101.22917"
     inkscape:cy="49.911974"
     inkscape:window-x="0"
     inkscape:window-y="0"
     inkscape:window-maximized="0"
     inkscape:current-layer="svg2" /><metadata
     id="metadata8"><rdf:RDF><cc:Work
         rdf:about=""><dc:format>image/svg+xml</dc:format><dc:type
           rdf:resource="http://purl.org/dc/dcmitype/StillImage" /><dc:title /></cc:Work></rdf:RDF></metadata><defs
     id="defs6">














</defs><path
     inkscape:connector-curvature="0"
     style="fill:#d40000;fill-opacity:1;fill-rule:evenodd;stroke:none"
     id="path3085"
     d="m 138.68721,33.74406 c 1.27892,0 2.32226,-1.043338 2.32226,-2.323562 0,-1.278926 -1.04334,-2.323551 -2.32226,-2.323551 -1.28151,0 -2.32485,1.044625 -2.32485,2.323551 0,1.280224 1.04334,2.323562 2.32485,2.323562 z m 11.09349,-0.90865 c 1.27892,0 2.32355,-1.044625 2.32355,-2.32485 0,-1.278925 -1.04463,-2.322262 -2.32355,-2.322262 -1.28023,0 -2.32357,1.043337 -2.32357,2.322262 0,1.280225 1.04334,2.32485 2.32357,2.32485 z m 11.25981,0.474825 c 1.28022,0 2.32356,-1.043337 2.32356,-2.323562 0,-1.280213 -1.04334,-2.32355 -2.32356,-2.32355 -1.28023,0 -2.32355,1.043337 -2.32355,2.32355 0,1.280225 1.04332,2.323562 2.32355,2.323562 z m 11.4226,1.781238 c 1.27892,0 2.32355,-1.044625 2.32355,-2.32485 0,-1.278926 -1.04463,-2.322263 -2.32355,-2.322263 -1.28023,0 -2.32485,1.043337 -2.32485,2.322263 0,1.280225 1.04462,2.32485 2.32485,2.32485 z m 11.4213,3.732349 c 1.28022,0 2.32356,-1.043337 2.32356,-2.323562 0,-1.278925 -1.04334,-2.32355 -2.32356,-2.32355 -1.28023,0 -2.32355,1.044625 -2.32355,2.32355 0,1.280225 1.04332,2.323562 2.32355,2.323562 z m 9.72321,6.580188 c 1.28023,0 2.32356,-1.043338 2.32356,-2.32355 0,-1.278925 -1.04333,-2.322263 -2.32356,-2.322263 -1.28022,0 -2.32355,1.043338 -2.32355,2.322263 0,1.280212 1.04333,2.32355 2.32355,2.32355 z m 6.30903,9.193062 c 1.28022,0 2.32356,-1.043337 2.32356,-2.323562 0,-1.278925 -1.04334,-2.32355 -2.32356,-2.32355 -1.27893,0 -2.32355,1.044625 -2.32355,2.32355 0,1.280225 1.04462,2.323562 2.32355,2.323562 z m 0.21813,10.757313 c 1.28023,0 2.32357,-1.044638 2.32357,-2.324863 0,-1.278924 -1.04334,-2.322249 -2.32357,-2.322249 -1.28021,0 -2.32355,1.043325 -2.32355,2.322249 0,1.280225 1.04334,2.324863 2.32355,2.324863 z m -6.23306,8.832587 c 1.27893,0 2.32226,-1.043325 2.32226,-2.32355 0,-1.278925 -1.04333,-2.323562 -2.32226,-2.323562 -1.28021,0 -2.32485,1.044637 -2.32485,2.323562 0,1.280225 1.04464,2.32355 2.32485,2.32355 z m -9.2027,5.017075 c 1.28023,0 2.32355,-1.043325 2.32355,-2.32355 0,-1.280225 -1.04332,-2.32355 -2.32355,-2.32355 -1.27892,0 -2.32355,1.043325 -2.32355,2.32355 0,1.280225 1.04463,2.32355 2.32355,2.32355 z m -11.04046,2.74655 c 1.28022,0 2.32356,-1.043337 2.32356,-2.323562 0,-1.278925 -1.04334,-2.32355 -2.32356,-2.32355 -1.28021,0 -2.32355,1.044625 -2.32355,2.32355 0,1.280225 1.04334,2.323562 2.32355,2.323562 z m -10.93683,0.73395 c 1.27893,0 2.32357,-1.043325 2.32357,-2.32355 0,-1.280225 -1.04464,-2.323562 -2.32357,-2.323562 -1.28022,0 -2.32355,1.043337 -2.32355,2.323562 0,1.280225 1.04333,2.32355 2.32355,2.32355" /><path
     inkscape:connector-curvature="0"
     style="font-size:50.56298447000000351px;font-style:normal;font-variant:normal;font-weight:normal;font-stretch:normal;text-align:end;line-height:86.00000142999998332%;letter-spacing:0px;word-spacing:0px;writing-mode:lr-tb;text-anchor:end;fill:#333333;fill-opacity:1;stroke:none;font-family:Ubuntu Condensed;-inkscape-font-specification:'Ubuntu Condensed,'"
     id="text3022"
     d="M 94.84375,-2.5000001e-6 89.40625,0.9374975 l 0,48.1249995 5.4375,0 0,-28.468749 c 1.516875,-0.421338 2.90305,-0.624976 4.125,-0.625 2.31745,2.4e-5 3.90726,0.764387 4.75,2.28125 0.8427,1.516912 1.24997,3.932175 1.25,7.21875 l 0,19.593749 5.43751,0 0,-20.062499 c -4e-5,-2.654538 -0.26476,-4.855276 -0.8125,-6.625 -0.50565,-1.811813 -1.22929,-3.227825 -2.15625,-4.28125 -0.88489,-1.053363 -1.93435,-1.797363 -3.15626,-2.21875 -1.22196,-0.463463 -2.54704,-0.687475 -3.9375,-0.6875 -0.969137,2.5e-5 -1.937137,0.0815 -2.90625,0.25 -0.927,0.168575 -1.793187,0.372212 -2.59375,0.625 l 0,-16.0625004999997 z m 32.59376,0 -5.4375,0.9375000000001 0,48.1249995 5.4375,0 0,-16.25 -1.21875,-1.34375 1.21875,-1.3125 0,-30.1562495000001 z M 116.18751,2.7812475 c -0.96914,5e-5 -1.7837,0.3258625 -2.5,1 -0.67419,0.632075 -1.03125,1.4982625 -1.03125,2.59375 0,1.0955625 0.35706,1.9821125 1.03125,2.65625 0.7163,0.632075 1.53086,0.9687875 2.5,0.96875 0.96911,3.75e-5 1.79456,-0.336675 2.46875,-0.96875 0.7163,-0.6741375 1.09374,-1.5606875 1.09375,-2.65625 -1e-5,-1.0954875 -0.37745,-1.961675 -1.09375,-2.59375 -0.67419,-0.6741375 -1.49964,-0.99995 -2.46875,-1 z M 16.25,4.2499975 c -2.486037,3.75e-5 -4.75875,0.407325 -6.7812498,1.25 -1.9803875,0.8006125 -3.6611375,2.1460625 -5.09375,4 -1.3904875,1.8118745 -2.4915625,4.1551625 -3.25,7.0624995 C 0.36655025,19.469898 2.5e-7,22.99571 2.5e-7,27.124998 c 0,3.960787 0.36655,7.373887 1.12499995,10.28125 0.800575,2.865237 1.9220125,5.260137 3.3125,7.15625 1.4326125,1.853975 3.0929875,3.229262 5.03125,4.15625 1.9382248,0.88485 4.0683998,1.34375 6.3437498,1.34375 1.85395,0 3.627038,-0.183288 5.3125,-0.5625 1.685413,-0.379225 3.081063,-0.858488 4.21875,-1.40625 l 0,-20.59375 -5.6875,0 0,17.125 c -0.927012,0.29495 -2.037562,0.4375 -3.34375,0.4375 -1.559037,0 -2.985937,-0.325825 -4.25,-1 -1.264087,-0.674175 -2.3339123,-1.723638 -3.2187498,-3.15625 -0.8848625,-1.432613 -1.5881375,-3.28715 -2.09375,-5.5625 -0.4635,-2.275325 -0.6875125,-5.016413 -0.6875,-8.21875 -1.25e-5,-5.983263 0.805075,-10.456713 2.40625,-13.40625 C 10.0699,10.727148 12.709163,9.218785 16.375,9.2187475 c 1.474725,3.75e-5 2.768563,0.2553 3.90625,0.71875 1.137638,0.4214005 2.1871,0.9508625 3.15625,1.6250005 L 25.21875,6.8437475 C 24.2496,6.16961 22.9965,5.56816 21.4375,5.0624975 19.87845,4.5147725 18.146088,4.250035 16.25,4.2499975 z M 52.28125,15.031247 c -1.432637,2.5e-5 -2.778075,0.173825 -4,0.46875 -1.22195,0.25285 -2.373237,0.599038 -3.46875,1.0625 l 1.15625,4.625001 c 0.969113,-0.421338 1.876025,-0.737688 2.71875,-0.90625 0.884838,-0.21065 1.812113,-0.312476 2.78125,-0.3125 1.769688,2.4e-5 3.10425,0.49965 4.03125,1.468749 0.969113,0.96915 1.437475,2.68115 1.4375,5.125 l 0,3.03125 c -1.68545,-0.337075 -3.203287,-0.531237 -4.59375,-0.53125 -1.474775,1.3e-5 -2.860937,0.255275 -4.125,0.718751 -1.264087,0.421374 -2.354275,1.052662 -3.28125,1.937499 -0.926987,0.842725 -1.670987,1.9438 -2.21875,3.250001 -0.505637,1.264087 -0.75,2.741187 -0.75,4.46875 0,1.853975 0.2851,3.4438 0.875,4.75 0.5899,1.264074 1.374613,2.313537 2.34375,3.156249 1.01125,0.842713 2.193775,1.464525 3.5,1.843751 1.348338,0.379212 2.76435,0.5625 4.28125,0.5625 1.516863,0 3.065963,-0.12225 4.625,-0.375 1.601138,-0.252813 3.139338,-0.609888 4.65625,-1.03125 l 0,-21.96875 c -2.5e-5,-3.876475 -0.9273,-6.750638 -2.78125,-8.562501 -1.853987,-1.853937 -4.238012,-2.781224 -7.1875,-2.78125 z m 21.5,0 c -1.559037,2.5e-5 -3.076875,0.1942 -4.59375,0.53125 -1.474762,0.294975 -2.8202,0.6819 -4,1.1875 l 0,44.000001 5.4375,0 0,-11.9375 c 0.674163,0.337087 1.397788,0.581462 2.15625,0.75 0.758425,0.210675 1.624613,0.3125 2.59375,0.3125 4.045013,0 6.949013,-1.487988 8.71875,-4.4375 1.811813,-2.9495 2.718713,-7.208438 2.71875,-12.8125 -3.7e-5,-2.780938 -0.2444,-5.2573 -0.75,-7.40625 -0.463525,-2.191038 -1.227887,-4.025225 -2.28125,-5.5 -1.011287,-1.516863 -2.377087,-2.668138 -4.0625,-3.46875 -1.643312,-0.80055 -3.62005,-1.218725 -5.9375,-1.21875 z M 37.625,15.249997 c -1.896125,2.5e-5 -3.64885,0.203675 -5.25,0.625 -1.559037,0.379263 -2.934325,0.847625 -4.15625,1.4375 l 0,31.75 5.4375,0 0,-28.3125 C 35.004575,20.20226 36.440963,19.906272 38,19.906247 c 1.685413,2.5e-5 3.214138,0.316375 4.5625,0.90625 l 0.9375,-4.6875 c -0.884875,-0.33705 -1.832512,-0.561062 -2.84375,-0.687499 -1.011287,-0.126375 -2.020012,-0.187475 -3.03125,-0.1875 z m 75.87501,0.625 0,33.1875 5.40625,0 0,-33.1875 -5.40625,0 z m -39.65626,3.96875 c 2.528125,2.5e-5 4.362313,0.988388 5.5,2.96875 1.179775,1.938263 1.781225,5.19935 1.78125,9.75 -2.5e-5,2.359613 -0.142575,4.33635 -0.4375,5.9375 -0.294975,1.601163 -0.753875,2.874625 -1.34375,3.84375 -0.547787,0.969125 -1.230687,1.6724 -2.03125,2.09375 -0.8006,0.421363 -1.727875,0.625 -2.78125,0.625 -1.390487,0 -2.684325,-0.325825 -3.90625,-1 l 0,-23.78125 c 0.589888,-0.168512 1.170963,-0.270337 1.71875,-0.3125 0.54775,-0.08425 1.036488,-0.125 1.5,-0.125 z m -20.625,13.71875 c 1.221913,1.3e-5 2.454663,0.162925 3.71875,0.5 l 0,10.5625 c -1.348362,0.29495 -2.5811,0.4375 -3.71875,0.4375 -1.853987,0 -3.27,-0.448012 -4.28125,-1.375 -1.011275,-0.926987 -1.531262,-2.374237 -1.53125,-4.3125 -1.2e-5,-1.137662 0.142538,-2.064937 0.4375,-2.78125 0.294938,-0.758437 0.713113,-1.328637 1.21875,-1.75 0.547763,-0.463487 1.158675,-0.800187 1.875,-0.96875 0.7163,-0.210662 1.480663,-0.312487 2.28125,-0.3125 z m 79.59376,6.6875 c 0.92696,1.432625 1.81351,2.920613 2.65625,4.4375 -0.84274,-1.516887 -1.72929,-3.004875 -2.65625,-4.4375 z" /><path
     inkscape:connector-curvature="0"
     style="font-size:50.56298447000000351px;font-style:normal;font-variant:normal;font-weight:normal;font-stretch:normal;text-align:end;line-height:86.00000142999998332%;letter-spacing:0px;word-spacing:0px;writing-mode:lr-tb;text-anchor:end;fill:#333333;fill-opacity:1;stroke:none;font-family:Ubuntu Condensed;-inkscape-font-specification:'Ubuntu Condensed,'"
     id="text3028"
     d="m 151.59495,48.874998 -5.4375,0.9375 0,48.09375 5.4375,0 0,-16.21875 -1.21875,-1.343751 1.21875,-1.312499 z m -35.66498,2.78125 c -0.96912,5e-5 -1.81495,0.325875 -2.53125,0.999999 -0.67417,0.632076 -1,1.498263 -1,2.593751 0,1.095575 0.32583,1.982125 1,2.65625 0.7163,0.632075 1.56213,0.968787 2.53125,0.96875 0.96913,3.7e-5 1.79458,-0.336676 2.46875,-0.96875 0.7163,-0.674125 1.06249,-1.560675 1.0625,-2.65625 -1e-5,-1.095488 -0.3462,-1.961675 -1.0625,-2.593751 -0.67417,-0.674125 -1.49962,-0.99995 -2.46875,-0.999999 z m -26.60907,2.46875 0,43.78125 19.53126,0 0,-4.84375 -13.84376,0 0,-38.9375 z m 42.4303,9.90625 c -1.5169,2.4e-5 -3.18818,0.194199 -5,0.531249 -1.81185,0.294975 -3.50348,0.661538 -5.0625,1.125 l 0,32.21875 5.4375,0 0,-28.4375 c 1.51687,-0.421325 2.90305,-0.624975 4.125,-0.625 2.31745,2.5e-5 3.87602,0.764388 4.71875,2.28125 0.8427,1.516913 1.28125,3.900925 1.28125,7.1875 l 0,19.59375 5.4375,0 0,-20.03125 c 0,-2.654525 -0.29602,-4.855275 -0.84375,-6.625 -0.50565,-1.811812 -1.2184,-3.259074 -2.1875,-4.3125 -0.92702,-1.053362 -2.08918,-1.766112 -3.4375,-2.1875 -1.34837,-0.463462 -2.82548,-0.718725 -4.46875,-0.71875 z m -18.53998,0.71875 0,33.15625 5.4375,0 0,-33.15625 z m 43.75873,24.375 c 0.92697,1.432625 1.81352,2.920625 2.65625,4.4375 -0.84273,-1.516875 -1.72928,-3.004876 -2.65625,-4.4375 z" /><path
     inkscape:connector-curvature="0"
     style="font-size:50.56298447px;font-style:normal;font-variant:normal;font-weight:normal;font-stretch:normal;text-align:end;line-height:86.00000143%;letter-spacing:0px;word-spacing:0px;writing-mode:lr-tb;text-anchor:end;fill:#d40000;fill-opacity:1;stroke:none;font-family:Ubuntu Condensed;-inkscape-font-specification:'Ubuntu Condensed,'"
     id="text3036"
     d="m 127.43751,32.812497 c 0.80056,0.884863 1.66675,1.975051 2.59375,3.28125 0.92696,1.306213 1.85425,2.681513 2.78125,4.156251 0.92696,1.432625 1.81351,2.920612 2.65625,4.437499 0.8427,1.516888 1.55544,2.984513 2.1875,4.375 l 5.9375,0 c -0.58994,-1.432625 -1.28231,-2.940975 -2.125,-4.5 -0.84274,-1.601162 -1.74965,-3.190975 -2.71875,-4.749999 -0.96914,-1.601151 -1.97788,-3.118988 -3.03125,-4.59375 -1.05341,-1.474738 -2.08251,-2.820188 -3.09375,-4 1.60114,-2.191038 3.18006,-4.513963 4.78125,-7.000001 1.64327,-2.528125 3.35526,-5.309937 5.125,-8.343749 l -5.8125,0 c -0.50565,0.969162 -1.14783,2.059337 -1.90625,3.28125 -0.75846,1.221962 -1.56355,2.475062 -2.40625,3.78125 -0.84274,1.2641 -1.67766,2.54845 -2.5625,3.812499 -0.84274,1.264101 -1.64783,2.395013 -2.40625,3.40625 l -1.22063,1.328113 z" /><path
     inkscape:connector-curvature="0"
     style="font-size:50.56298447px;font-style:normal;font-variant:normal;font-weight:normal;font-stretch:normal;text-align:end;line-height:86.00000143%;letter-spacing:0px;word-spacing:0px;writing-mode:lr-tb;text-anchor:end;fill:#d40000;fill-opacity:1;stroke:none;font-family:Ubuntu Condensed;-inkscape-font-specification:'Ubuntu Condensed,'"
     id="text3043"
     d="m 151.59495,81.687498 c 0.80057,0.884875 1.66675,1.97505 2.59375,3.28125 0.92697,1.306224 1.85425,2.681512 2.78125,4.15625 0.92697,1.432625 1.81352,2.920625 2.65625,4.4375 0.8427,1.516887 1.58668,2.953275 2.21875,4.34375 l 5.9375,0 c -0.58993,-1.432626 -1.31357,-2.909725 -2.15625,-4.468751 -0.84274,-1.601162 -1.74965,-3.190975 -2.71875,-4.749999 -0.96914,-1.601151 -1.97788,-3.118976 -3.03125,-4.59375 -1.05342,-1.474738 -2.08252,-2.820175 -3.09375,-4 1.60113,-2.191038 3.21132,-4.513963 4.8125,-7 1.64327,-2.528125 3.32402,-5.309938 5.09375,-8.34375 l -5.8125,0 c -0.50565,0.969162 -1.11658,2.059337 -1.875,3.28125 -0.75847,1.221974 -1.56355,2.475075 -2.40625,3.78125 -0.84273,1.2641 -1.70892,2.54845 -2.59375,3.812499 -0.84273,1.264101 -1.64783,2.395013 -2.40625,3.406251 l -1.22063,1.328125 z" /><text
     sodipodi:linespacing="125%"
     style="font-size:12.75532721999999985px;font-style:normal;font-variant:normal;font-weight:500;font-stretch:normal;text-align:end;line-height:125%;letter-spacing:0px;word-spacing:0px;writing-mode:lr-tb;text-anchor:end;fill:#333333;fill-opacity:1;stroke:none;font-family:Ubuntu;-inkscape-font-specification:Ubuntu Medium"
     xml:space="preserve"
     id="text3087"
     y="11.298528"
     x="69.315651"><tspan
       id="tspan3089"
       y="11.298528"
       x="69.315651"
       style="fill:#333333;fill-opacity:1">RFM</tspan></text>
<text
     sodipodi:linespacing="125%"
     style="font-size:12.75532721999999985px;font-style:normal;font-variant:normal;font-weight:500;font-stretch:normal;text-align:end;line-height:125%;letter-spacing:0px;word-spacing:0px;writing-mode:lr-tb;text-anchor:end;fill:#333333;fill-opacity:1;stroke:none;font-family:Ubuntu;-inkscape-font-specification:Ubuntu Medium"
     xml:space="preserve"
     id="text3091"
     y="110.56077"
     x="172.30817"><tspan
       id="tspan3093"
       y="110.56077"
       x="172.30817"
       style="fill:#333333;fill-opacity:1">CORPORATION</tspan></text>
</svg>